<?xml version="1.0" standalone="no"?>
<!DOCTYPE svg PUBLIC "-//W3C//DTD SVG 20010904//EN"
 "http://www.w3.org/TR/2001/REC-SVG-20010904/DTD/svg10.dtd">
<svg version="1.0" xmlns="http://www.w3.org/2000/svg"
 width="204.000000pt" height="192.000000pt" viewBox="0 0 204.000000 192.000000"
 preserveAspectRatio="xMidYMid meet">

<g transform="translate(0.000000,192.000000) scale(0.100000,-0.100000)"
fill="#000000" stroke="none">
<path d="M793 1404 c-123 -119 -223 -220 -223 -225 0 -5 186 -9 450 -9 255 0
450 4 450 9 0 8 -434 433 -448 438 -4 2 -107 -94 -229 -213z m294 40 c46 -29
58 -113 23 -157 -24 -31 -78 -50 -114 -41 -15 3 -40 19 -56 34 -55 51 -37 145
34 176 35 16 78 11 113 -12z"/>
<path d="M595 1028 l0 -108 68 0 c86 0 107 11 107 53 0 18 -5 38 -11 44 -8 8
-7 16 2 30 17 28 4 72 -24 77 -12 3 -49 7 -82 8 l-60 4 0 -108z m105 62 c25
-14 15 -40 -16 -40 -19 0 -24 5 -24 25 0 27 10 31 40 15z m15 -105 c0 -14 -8
-21 -27 -23 -24 -3 -28 0 -28 23 0 23 4 26 28 23 19 -2 27 -9 27 -23z"/>
<path d="M891 1133 c-59 -4 -63 -5 -57 -26 6 -23 -20 -136 -35 -151 -21 -22
-9 -36 31 -36 33 0 40 3 40 20 0 11 -4 20 -10 20 -5 0 -7 7 -4 15 7 16 59 21
68 6 4 -5 2 -21 -4 -35 -9 -26 -9 -26 35 -26 25 0 45 2 45 5 0 3 -9 34 -21 68
-12 34 -21 81 -20 105 0 23 -1 41 -2 40 -1 -1 -31 -3 -66 -5z m13 -65 c10 -38
7 -48 -15 -48 -17 0 -20 4 -15 23 3 12 6 28 6 35 0 21 17 13 24 -10z"/>
<path d="M1024 1125 c-4 -8 -2 -21 3 -28 10 -14 10 -133 0 -143 -19 -20 -5
-34 33 -34 28 0 40 4 40 14 0 8 -4 18 -10 21 -12 7 -14 65 -2 65 4 0 20 -23
37 -50 21 -37 35 -50 52 -50 21 0 23 4 24 63 1 34 0 72 0 84 -1 11 3 24 8 28
23 14 10 33 -25 37 -37 4 -60 -16 -35 -32 7 -4 11 -22 9 -41 l-3 -34 -39 58
c-29 43 -45 57 -63 57 -13 0 -26 -7 -29 -15z"/>
<path d="M1290 1133 l-35 -4 0 -104 0 -105 38 0 38 0 -7 45 c-3 25 -3 45 1 45
15 0 34 -35 35 -62 0 -26 3 -28 45 -28 56 0 58 14 10 66 -19 21 -35 42 -35 48
0 6 16 27 36 47 50 51 39 63 -48 50 -5 0 -8 -12 -8 -24 0 -13 -10 -32 -21 -43
l-22 -19 7 48 c4 26 6 46 4 45 -2 -1 -19 -3 -38 -5z"/>
<path d="M552 858 c-25 -25 -6 -68 30 -68 17 0 18 -12 18 -149 0 -145 -1 -150
-21 -153 -30 -4 -47 -33 -33 -55 10 -17 44 -18 474 -18 430 0 464 1 474 18 14
22 -3 51 -33 55 -20 3 -21 8 -21 152 0 144 1 149 21 152 30 4 47 33 33 56 -10
16 -46 17 -470 20 -349 2 -463 -1 -472 -10z m198 -219 c0 -150 0 -150 -22
-147 -23 3 -23 6 -26 151 l-3 147 26 0 25 0 0 -151z m95 4 c-2 -143 -2 -148
-23 -151 -22 -3 -22 -2 -22 147 l0 151 24 0 23 0 -2 -147z m150 -3 c0 -143 0
-145 -22 -148 -23 -3 -23 -3 -23 148 0 151 0 151 23 148 22 -3 22 -5 22 -148z
m95 -1 c0 -150 0 -150 -22 -147 -22 3 -23 7 -26 137 -1 74 0 141 2 148 3 7 15
13 26 13 19 0 20 -6 20 -151z m150 0 c0 -150 0 -150 -22 -147 -23 3 -23 5 -23
143 0 77 1 143 3 148 2 4 12 7 23 7 18 0 19 -8 19 -151z m98 4 c-3 -140 -4
-148 -23 -148 -19 0 -20 8 -23 148 l-3 147 26 0 26 0 -3 -147z"/>
</g>
</svg>
